<svg id="Capa_1" enable-background="new 0 0 513.232 513.232" height="512" viewBox="0 0 513.232 513.232" width="512" xmlns="http://www.w3.org/2000/svg"><g><g><g><path d="m315.611 261.586h-118.096v-15.962c0-32.611 26.437-59.048 59.048-59.048 32.611 0 59.048 26.437 59.048 59.048z" fill="#99e6fc"/></g><g><path d="m315.61 245.62v15.963h-16.672v-15.963c0-16.305-6.61-31.068-17.297-41.746-8.828-8.836-20.448-14.879-33.418-16.705 2.726-.392 5.51-.592 8.336-.592 16.305 0 31.076 6.61 41.754 17.297 10.687 10.679 17.297 25.441 17.297 41.746z" fill="#62dbfb"/></g><g><path d="m256.563 204.641c-7.834 0-14.185-6.351-14.185-14.185v-32.697h28.371v32.697c-.001 7.834-6.352 14.185-14.186 14.185z" fill="#fed2a4"/></g><g><path d="m270.747 157.759v32.701c0 7.832-6.353 14.185-14.185 14.185-2.576 0-5.009-.688-7.092-1.909 4.239-2.443 7.092-7.031 7.092-12.276v-32.701z" fill="#ffbd86"/></g><g><path d="m256.566 173.879c-30.69 0-55.569-24.879-55.569-55.569v-45.313h55.569 55.569v45.313c0 30.69-24.879 55.569-55.569 55.569z" fill="#fed2a4"/></g><g><path d="m312.134 72.994v45.313c0 30.692-24.874 55.575-55.566 55.575-2.834 0-5.618-.208-8.336-.625 26.741-4.018 47.231-27.091 47.231-54.95v-45.313z" fill="#ffbd86"/></g><g><path d="m322.248 57.006c-1.57-2.208-2.002-5.012-1.352-7.642 1.382-5.593 1.99-11.518 2.171-17.386.161-5.23-.202-10.497-1.04-15.684-.905-5.602-6.322-9.309-11.872-8.129-3.695.785-7.183 1.469-7.72 1.575-16.345 3.23-31.927 3.583-48.486 4.707-15.07 1.023-30.192 3.261-43.828 10.125-9.76 4.913-15.852 14.431-15.917 24.782v.032c-.012 2.116-.696 4.184-2 5.85-6.538 8.352-10.204 18.737-10.204 29.578v22.311h18.896l.099-29.945c.011-3.459 3.793-5.503 6.749-3.707.026.016.052.031.078.047 7.949 4.79 17.843 6.641 27.218 7.686 12.952 1.444 26.786 1.521 39.792.475 6.331-.509 12.692-1.39 18.784-3.239 2.988-.907 5.917-2.033 8.688-3.489 1.04-.548 2.03-1.133 2.972-1.753 2.939-1.935 6.847.116 6.858 3.635l.1 30.29h18.896v-22.311c.002-10.087-3.173-19.78-8.882-27.808z" fill="#596c76"/></g><g><path d="m331.131 84.814v22.315h-15.521v-22.315c0-10.086-3.176-19.781-8.878-27.808-1.575-2.209-2.009-5.01-1.359-7.644 1.384-5.593 1.992-11.52 2.176-17.38.158-5.235-.2-10.503-1.042-15.688-.45-2.759-1.992-5.068-4.11-6.543.017 0 .025-.008.042-.008.534-.108 4.018-.792 7.719-1.576 5.543-1.184 10.962 2.526 11.87 8.127.834 5.185 1.2 10.453 1.042 15.688-.183 5.86-.792 11.787-2.176 17.38-.65 2.634-.217 5.435 1.35 7.644 5.711 8.027 8.887 17.722 8.887 27.808z" fill="#465a61"/></g><g><path d="m201.097 118.007h-7.327c-8.733 0-15.812-7.079-15.812-15.812 0-8.733 7.079-15.812 15.812-15.812h7.327z" fill="#fed2a4"/></g><g><path d="m312.135 118.007h7.327c8.733 0 15.812-7.079 15.812-15.812 0-8.733-7.079-15.812-15.812-15.812h-7.327z" fill="#fed2a4"/></g></g><g><g><path d="m373.237 327.611v83.708c0 20.494 16.614 37.108 37.108 37.108h58.279c20.494 0 37.108-16.614 37.108-37.108v-83.708z" fill="#596c76"/></g><g><path d="m505.733 327.611v83.708c0 20.489-16.613 37.111-37.111 37.111h-16.672c20.498 0 37.111-16.622 37.111-37.111v-83.708z" fill="#465a61"/></g><g><path d="m499.057 505.279h-119.145v-16.104c0-32.901 26.672-59.573 59.573-59.573 32.901 0 59.573 26.672 59.573 59.573v16.104z" fill="#d9b1ee"/></g><g><path d="m499.056 489.176v16.105h-16.672v-16.105c0-16.455-6.669-31.343-17.447-42.129-8.928-8.928-20.673-15.03-33.785-16.863 2.726-.383 5.51-.584 8.336-.584 16.447 0 31.343 6.669 42.121 17.447 10.778 10.786 17.447 25.674 17.447 42.129z" fill="#cb97e7"/></g><g><path d="m439.485 447.828c-7.904 0-14.311-6.407-14.311-14.311v-32.987h28.623v32.987c-.001 7.903-6.408 14.311-14.312 14.311z" fill="#fed2a4"/></g><g><path d="m453.794 400.53v32.992c0 7.901-6.41 14.311-14.311 14.311-2.599 0-5.053-.694-7.155-1.926 4.277-2.465 7.155-7.093 7.155-12.385v-32.992z" fill="#ffbd86"/></g><g><path d="m439.485 418.703c-33.013 0-59.775-26.762-59.775-59.775v-48.744l26.651-16.037 33.124 16.037h59.775v48.744c0 33.013-26.762 59.775-59.775 59.775z" fill="#fed2a4"/></g><g><path d="m499.256 310.181v48.748c0 33.01-26.758 59.776-59.768 59.776-2.868 0-5.685-.2-8.444-.6 29.017-4.093 51.34-29.034 51.34-59.176v-48.748z" fill="#ffbd86"/></g><g><path d="m499.163 280.48c-4.732-9.947-11.221-17.441-18.183-23.081-12.009-9.73-26.752-14.594-41.496-14.594l-3.566.097c-10.267.548-20.431 3.461-29.556 8.736l-.002.001c-2.905 1.68-5.706 3.6-8.371 5.76-6.962 5.641-13.451 13.134-18.183 23.081-4.54 9.544-6.569 20.09-6.569 30.658v18.921h6.472c18.62-5.282 26.651-34.63 26.651-34.63h.001c15.957 27.9 56.792 33.798 80.859 34.751 3.564.141 9.347-.163 12.041-.163h6.472v-18.879c-.001-10.568-2.03-21.114-6.57-30.658z" fill="#596c76"/></g><g><path d="m505.733 311.14v18.881s0 0-6.477 0c-2.267 0-6.719.208-10.195.2v-16.755c0-10.57-2.026-21.115-6.569-30.659-4.735-9.945-11.22-17.439-18.18-23.082-12.012-9.728-26.758-14.596-41.496-14.596l-.867.025c4.568-1.25 9.261-2.001 13.971-2.251l3.568-.1c14.738 0 29.484 4.868 41.496 14.596 6.96 5.643 13.446 13.137 18.18 23.082 4.543 9.544 6.569 20.089 6.569 30.659z" fill="#465a61"/></g></g><g><g><path d="m145.153 505.281h-118.097v-15.962c0-32.611 26.437-59.048 59.048-59.048 32.611 0 59.048 26.437 59.048 59.048v15.962z" fill="#d1f19e"/></g><g><path d="m145.149 489.315v15.963h-16.672v-15.963c0-16.305-6.61-31.068-17.288-41.746-8.836-8.836-20.448-14.879-33.418-16.705 2.726-.392 5.51-.592 8.336-.592 16.305 0 31.068 6.61 41.754 17.297 10.678 10.679 17.288 25.441 17.288 41.746z" fill="#bbec6c"/></g><g><path d="m86.105 448.335c-7.834 0-14.185-6.351-14.185-14.185v-32.697h28.371v32.697c-.001 7.834-6.352 14.185-14.186 14.185z" fill="#d88a55"/></g><g><path d="m100.288 401.454v32.701c0 7.832-6.353 14.185-14.185 14.185-2.576 0-5.009-.688-7.092-1.909 4.239-2.443 7.092-7.031 7.092-12.276v-32.701z" fill="#c57a44"/></g><g><path d="m86.108 417.574c-30.69 0-55.569-24.879-55.569-55.569v-45.313h55.569 55.569v45.313c0 30.69-24.879 55.569-55.569 55.569z" fill="#d88a55"/></g><g><path d="m141.673 316.689v45.313c0 30.692-24.874 55.575-55.567 55.575-2.834 0-5.618-.208-8.336-.625 26.741-4.018 47.231-27.091 47.231-54.95v-45.313z" fill="#c57a44"/></g><g><g><path d="m11.543 328.509v22.311h18.896v-29.862c.011-3.457 3.889-5.58 6.847-3.79l.078.047c7.95 4.79 17.843 6.641 27.218 7.686 12.952 1.444 26.786 1.521 39.792.475 6.331-.509 12.692-1.39 18.784-3.239 2.988-.907 5.917-2.033 8.688-3.489 1.061-.559 2.07-1.157 3.028-1.791 2.91-1.924 6.89.183 6.901 3.672v30.29h18.896v-22.311-2.303c0-41.181-33.384-74.565-74.565-74.565-41.181 0-74.565 33.384-74.565 74.565v2.304z" fill="#433f43"/></g></g><g><g><path d="m160.67 326.208v24.616h-16.672v-24.616c0-38.37-28.975-69.963-66.228-74.097 2.734-.308 5.518-.467 8.336-.467 41.18 0 74.564 33.377 74.564 74.564z" fill="#302e30"/></g></g><g><path d="m30.639 361.701h-7.327c-8.733 0-15.812-7.079-15.812-15.812 0-8.733 7.079-15.812 15.812-15.812h7.327z" fill="#d88a55"/></g><g><path d="m141.677 361.701h7.327c8.733 0 15.812-7.079 15.812-15.812 0-8.733-7.079-15.812-15.812-15.812h-7.327z" fill="#d88a55"/></g></g><g><path d="m338.632 84.814c0-11.587-3.552-22.706-10.271-32.155-.258-.361-.326-.921-.184-1.496 1.386-5.608 2.167-11.808 2.387-18.955.174-5.629-.207-11.386-1.132-17.112-.758-4.686-3.439-8.913-7.358-11.597-3.92-2.685-8.832-3.66-13.477-2.672-3.315.705-6.462 1.326-7.4 1.511l-.215.042c-12.557 2.481-24.716 3.202-37.59 3.963-3.286.195-6.598.391-9.95.618-3.392.231-6.449.497-9.351.815-4.117.451-7.089 4.155-6.638 8.272s4.129 7.086 8.272 6.639c2.693-.295 5.55-.544 8.732-.76 3.308-.225 6.576-.418 9.82-.61 13.397-.793 26.053-1.542 39.618-4.223l.207-.041c.965-.19 4.201-.83 7.611-1.555.887-.188 1.56.154 1.882.375.321.22.883.723 1.026 1.615.773 4.784 1.092 9.581.948 14.257-.188 6.075-.827 11.249-1.957 15.819-1.192 4.831-.273 9.856 2.521 13.787 3.805 5.35 6.211 11.434 7.101 17.84-1.172-.192-2.372-.296-3.594-.306l-.007-2.077c-.015-4.371-2.413-8.368-6.259-10.432-3.867-2.074-8.552-1.861-12.223.557-.746.491-1.534.956-2.338 1.379-2.159 1.135-4.571 2.1-7.377 2.951-4.757 1.444-10.225 2.378-17.208 2.94-13.031 1.048-26.297.892-38.359-.453-7.502-.836-17.028-2.348-24.119-6.619-.012-.007-.101-.062-.113-.069-3.693-2.245-8.323-2.333-12.081-.228-3.725 2.087-6.048 6.041-6.063 10.319l-.006 1.734c-1.22.015-2.417.124-3.586.32.991-7.018 3.815-13.738 8.208-19.35 2.297-2.935 3.572-6.639 3.594-10.457.048-7.547 4.565-14.494 11.786-18.129.457-.23.915-.454 1.376-.673 3.742-1.775 5.338-6.248 3.563-9.99-1.776-3.744-6.248-5.338-9.99-3.563-.564.268-1.126.542-1.689.826-12.28 6.182-19.961 18.227-20.045 31.473-.003.487-.147.938-.405 1.268-7.608 9.719-11.799 21.865-11.799 34.201v4.276c-2.549 3.737-4.043 8.249-4.043 13.104 0 12.854 10.458 23.312 23.313 23.312h.149c2.74 24 19.005 43.94 40.958 52.011v5.199c-26.079 9.015-44.863 33.803-44.863 62.907v15.962c0 4.142 3.357 7.5 7.5 7.5h118.097c4.143 0 7.5-3.358 7.5-7.5v-15.962c0-29.102-18.788-53.872-44.863-62.887v-5.216c21.957-8.069 38.225-28.011 40.965-52.014h.249c12.854 0 23.313-10.458 23.313-23.312 0-4.917-1.534-9.48-4.143-13.244zm-145.135 25.683c-4.457-.145-8.039-3.812-8.039-8.303 0-4.492 3.582-8.158 8.039-8.304zm114.614 135.127v8.462h-103.096v-8.462c0-21.241 12.921-39.509 31.312-47.39 3.134 8.125 11.021 13.907 20.237 13.907 9.215 0 17.101-5.781 20.235-13.904 18.39 7.88 31.312 26.145 31.312 47.387zm-58.233-55.169v-9.441c2.199.233 4.428.365 6.688.365 2.258 0 4.485-.131 6.682-.364v9.44c0 3.687-2.999 6.686-6.685 6.686s-6.685-2.999-6.685-6.686zm54.758-72.145c0 26.505-21.563 48.069-48.069 48.069-26.258 0-47.652-21.165-48.051-47.33.048-.342-.019-36.703-.019-36.703 8.584 3.969 18.072 5.462 25.713 6.314 13.001 1.448 27.256 1.62 41.225.497 8.08-.65 14.551-1.774 20.361-3.539 3.247-.985 6.15-2.114 8.84-3.438zm15-7.806v-16.62c4.504.093 8.139 3.785 8.139 8.311-.001 4.524-3.635 8.217-8.139 8.309z"/><path d="m513.232 411.318v-100.18c0-12.303-2.455-23.702-7.297-33.88-4.773-10.034-11.581-18.676-20.233-25.687-12.948-10.49-29.361-16.267-46.218-16.267-.068 0-.136.001-.204.003l-3.566.097c-.065.001-.13.004-.195.008-11.584.618-22.964 3.983-32.91 9.732-.021.012-.041.024-.063.037-3.245 1.881-6.366 4.031-9.278 6.391-8.653 7.011-15.461 15.653-20.233 25.686-4.842 10.176-7.297 21.575-7.297 33.88v100.181c0 15.64 8.094 29.421 20.311 37.386-8.548 11.257-13.636 25.278-13.636 40.47v16.104c0 4.142 3.357 7.5 7.5 7.5h119.146c4.143 0 7.5-3.358 7.5-7.5v-16.104c0-15.198-5.092-29.221-13.644-40.48 12.217-7.963 20.317-21.735 20.317-37.377zm-132.495 0v-19.661c8.031 14.357 21.169 25.482 36.937 30.906v3.185c-7.721 2.662-14.803 6.702-20.963 11.816-9.476-4.942-15.974-14.839-15.974-26.246zm58.747-.115c-28.825 0-52.275-23.45-52.275-52.275v-23.794c7.437-3.763 13.945-10.73 19.402-20.796.689-1.272 1.325-2.529 1.909-3.749 20.926 21.409 56.938 26.235 78.402 27.085.31.012 4.837.003 4.837.019v21.235c.001 28.824-23.449 52.275-52.275 52.275zm6.812 14.654v7.659c0 3.755-3.056 6.811-6.812 6.811-3.755 0-6.811-3.056-6.811-6.811v-7.659c2.24.226 4.512.345 6.811.345 2.3.001 4.571-.118 6.812-.345zm45.262 71.922h-104.146v-8.604c0-21.482 13.083-39.951 31.693-47.898 3.135 8.206 11.085 14.051 20.379 14.051 9.295 0 17.245-5.846 20.38-14.052 18.61 7.947 31.693 26.417 31.693 47.899v8.604zm6.674-86.461c0 11.406-6.491 21.31-15.965 26.253-6.163-5.117-13.247-9.159-20.971-11.822v-3.186c15.768-5.424 28.906-16.549 36.937-30.907v19.662zm0-88.791c-.88.015-1.93.044-3.058.077-2.512.072-5.638.163-7.658.082-21.753-.862-60.378-6.033-74.646-30.98-1.347-2.354-3.844-3.776-6.509-3.776-.313 0-.63.02-.946.06-3.008.382-5.489 2.537-6.29 5.461-.018.065-1.886 6.7-5.702 13.739-2.778 5.126-7.09 11.396-12.687 14.397v-10.448c0-10.058 1.966-19.289 5.842-27.437 3.804-7.996 9.23-14.884 16.132-20.476 2.323-1.883 4.814-3.597 7.404-5.094.018-.01.035-.021.053-.031 7.869-4.538 16.875-7.2 26.056-7.704l3.359-.092c13.396.022 26.416 4.609 36.676 12.922 6.899 5.59 12.327 12.479 16.132 20.476 3.876 8.149 5.842 17.38 5.842 27.437z"/><path d="m168.173 326.206c0-45.251-36.813-82.065-82.064-82.065s-82.066 36.814-82.066 82.065v6.58c-2.549 3.736-4.043 8.248-4.043 13.103 0 12.854 10.458 23.312 23.313 23.312h.149c2.74 24 19.004 43.94 40.957 52.011v5.185c-11.524 3.963-21.857 11.061-29.809 20.764-2.626 3.204-2.157 7.929 1.047 10.555 3.202 2.625 7.929 2.158 10.555-1.047 5.357-6.536 12.112-11.537 19.652-14.75 3.132 8.13 11.021 13.916 20.241 13.916 9.217 0 17.104-5.783 20.238-13.908 18.39 7.881 31.311 26.15 31.311 47.391v8.462h-103.097v-8.462c0-1.643.077-3.296.23-4.915.39-4.124-2.638-7.783-6.762-8.172-4.103-.388-7.781 2.638-8.172 6.761-.197 2.085-.297 4.213-.297 6.326v15.962c0 4.142 3.357 7.5 7.5 7.5h118.097c4.143 0 7.5-3.358 7.5-7.5v-15.962c0-29.105-18.783-53.902-44.863-62.916v-5.187c21.957-8.069 38.224-28.011 40.964-52.014h.25c12.854 0 23.313-10.458 23.313-23.312 0-4.917-1.534-9.481-4.144-13.245zm-145.134 27.986c-4.457-.145-8.039-3.812-8.039-8.303 0-4.492 3.582-8.158 8.039-8.304zm69.751 79.958c0 3.687-2.999 6.686-6.686 6.686s-6.686-2.999-6.686-6.686v-9.441c2.2.233 4.429.365 6.689.365 2.258 0 4.485-.131 6.682-.364v9.44zm41.387-72.449v.304c0 26.505-21.563 48.069-48.068 48.069-26.506 0-48.069-21.563-48.069-48.069v-35.963c8.584 3.969 18.071 5.462 25.713 6.314 13.002 1.448 27.257 1.62 41.225.497 8.081-.65 14.552-1.775 20.36-3.539 3.248-.985 6.151-2.114 8.84-3.437v35.824zm8.71-51.659c-3.852-2.063-8.508-1.849-12.146.558-2.99 1.975-6.34 3.32-9.761 4.359-4.756 1.444-10.224 2.378-17.207 2.94-13.03 1.048-26.296.893-38.359-.453-7.502-.836-17.029-2.348-24.155-6.642-.004-.002-.085-.051-.089-.054-3.676-2.225-8.289-2.301-12.035-.195-3.747 2.104-6.083 6.081-6.097 10.377l-.005 1.65c-1.332.016-2.637.146-3.907.377 1.699-35.479 31.091-63.82 66.983-63.82 35.885 0 65.274 28.332 66.982 63.802-1.271-.226-2.575-.351-3.906-.361l-.007-2.075c-.015-4.382-2.425-8.392-6.291-10.463zm6.29 44.157v-16.621c4.504.092 8.14 3.785 8.14 8.311s-3.636 8.218-8.14 8.31z"/><path d="m389.1 122.022c19.24 9.073 42.325 23.7 53.84 56.883l-14.784-7.838c-3.658-1.941-8.198-.546-10.139 3.113-1.94 3.66-.547 8.199 3.113 10.14l32.662 17.316c1.096.581 2.304.874 3.513.874 1.052 0 2.104-.221 3.087-.665 2.114-.955 3.668-2.834 4.207-5.09l9.471-39.594c.964-4.028-1.521-8.075-5.549-9.039-4.034-.964-8.076 1.521-9.039 5.55l-3.88 16.221c-13.994-36.014-40.544-52.212-60.104-61.437-3.747-1.767-8.216-.162-9.982 3.584-1.768 3.746-.162 8.215 3.584 9.982z"/><path d="m44.111 204.087c.778.256 1.568.378 2.346.378 3.15 0 6.084-2.001 7.123-5.157 6.651-20.206 18.344-44.907 49.868-60.396l-5.97 15.631c-1.478 3.87.461 8.204 4.331 9.682.881.336 1.785.496 2.674.496 3.021 0 5.867-1.837 7.009-4.826l13.189-34.535c.827-2.167.605-4.595-.601-6.576-1.207-1.981-3.262-3.293-5.567-3.553l-40.455-4.555c-4.118-.461-7.828 2.498-8.292 6.614-.463 4.116 2.498 7.829 6.614 8.292l16.573 1.866c-34.031 18.295-46.859 46.627-53.621 67.169-1.295 3.936.845 8.175 4.779 9.47z"/><path d="m304.819 423.449c-19.173 9.215-45.081 17.914-78.097 5.935l15.403-6.534c3.813-1.618 5.594-6.02 3.976-9.833-1.618-3.814-6.022-5.593-9.833-3.975l-34.032 14.437c-2.136.906-3.731 2.749-4.323 4.992s-.112 4.634 1.299 6.475l24.765 32.313c1.477 1.927 3.705 2.938 5.959 2.938 1.591 0 3.195-.505 4.557-1.548 3.287-2.52 3.91-7.227 1.391-10.515l-10.143-13.234c11.754 3.784 22.746 5.298 32.898 5.298 21.611 0 39.419-6.853 52.681-13.228 3.733-1.794 5.305-6.275 3.511-10.009-1.798-3.736-6.279-5.306-10.012-3.512z"/></g></g></svg>